<svg width="30" height="32" viewBox="0 0 30 32" fill="none" xmlns="http://www.w3.org/2000/svg">
<path d="M12.5417 22.8546L22.8229 11.9275L20.7812 9.75755L12.5417 18.5148L8.38542 14.0974L6.34375 16.2673L12.5417 22.8546ZM14.5833 31.2244C12.566 31.2244 10.6701 30.8175 8.89583 30.0038C7.12153 29.1901 5.57812 28.0857 4.26562 26.6908C2.95312 25.2958 1.91406 23.6555 1.14844 21.7697C0.382812 19.8839 0 17.869 0 15.7249C0 13.5808 0.382812 11.5658 1.14844 9.68005C1.91406 7.79427 2.95312 6.15391 4.26562 4.75895C5.57812 3.364 7.12153 2.25965 8.89583 1.44593C10.6701 0.632204 12.566 0.225342 14.5833 0.225342C16.6007 0.225342 18.4965 0.632204 20.2708 1.44593C22.0451 2.25965 23.5885 3.364 24.901 4.75895C26.2135 6.15391 27.2526 7.79427 28.0182 9.68005C28.7839 11.5658 29.1667 13.5808 29.1667 15.7249C29.1667 17.869 28.7839 19.8839 28.0182 21.7697C27.2526 23.6555 26.2135 25.2958 24.901 26.6908C23.5885 28.0857 22.0451 29.1901 20.2708 30.0038C18.4965 30.8175 16.6007 31.2244 14.5833 31.2244ZM14.5833 28.1245C17.8403 28.1245 20.599 26.9233 22.8594 24.5208C25.1198 22.1184 26.25 19.1864 26.25 15.7249C26.25 12.2633 25.1198 9.33131 22.8594 6.92888C20.599 4.52646 17.8403 3.32525 14.5833 3.32525C11.3264 3.32525 8.56771 4.52646 6.30729 6.92888C4.04688 9.33131 2.91667 12.2633 2.91667 15.7249C2.91667 19.1864 4.04688 22.1184 6.30729 24.5208C8.56771 26.9233 11.3264 28.1245 14.5833 28.1245Z" fill="#75FB4C"/>
</svg>
