<svg width="31" height="31" viewBox="0 0 31 31" fill="none" xmlns="http://www.w3.org/2000/svg">
<path d="M13.33 22.63L24.2575 11.7025L22.0875 9.5325L13.33 18.29L8.9125 13.8725L6.7425 16.0425L13.33 22.63ZM15.5 31C13.3558 31 11.3408 30.5931 9.455 29.7794C7.56917 28.9656 5.92875 27.8612 4.53375 26.4662C3.13875 25.0713 2.03437 23.4308 1.22063 21.545C0.406875 19.6592 0 17.6442 0 15.5C0 13.3558 0.406875 11.3408 1.22063 9.455C2.03437 7.56917 3.13875 5.92875 4.53375 4.53375C5.92875 3.13875 7.56917 2.03437 9.455 1.22063C11.3408 0.406875 13.3558 0 15.5 0C17.6442 0 19.6592 0.406875 21.545 1.22063C23.4308 2.03437 25.0712 3.13875 26.4662 4.53375C27.8612 5.92875 28.9656 7.56917 29.7794 9.455C30.5931 11.3408 31 13.3558 31 15.5C31 17.6442 30.5931 19.6592 29.7794 21.545C28.9656 23.4308 27.8612 25.0713 26.4662 26.4662C25.0712 27.8612 23.4308 28.9656 21.545 29.7794C19.6592 30.5931 17.6442 31 15.5 31ZM15.5 27.9C18.9617 27.9 21.8938 26.6987 24.2962 24.2962C26.6987 21.8937 27.9 18.9617 27.9 15.5C27.9 12.0383 26.6987 9.10625 24.2962 6.70375C21.8938 4.30125 18.9617 3.1 15.5 3.1C12.0383 3.1 9.10625 4.30125 6.70375 6.70375C4.30125 9.10625 3.1 12.0383 3.1 15.5C3.1 18.9617 4.30125 21.8937 6.70375 24.2962C9.10625 26.6987 12.0383 27.9 15.5 27.9Z" fill="white"/>
</svg>
